{"title":"The Great Locomotive Chase  (Western 1956)  Fess Parker, Jeffrey","uid":9408812,"size":490095672,"categoryP":"video","categoryS":"movies","magnet":"?xt=urn:btih:97bd26930b587d846d311e61791710a2fc202b85&amp;dn=The+Great+Locomotive+Chase++%28Western+1956%29++Fess+Parker%2C+Jeffrey&amp;tr=udp%3A%2F%2Ftracker.openbittorrent.com%3A80&amp;tr=udp%3A%2F%2Fopen.demonii.com%3A1337&amp;tr=udp%3A%2F%2Ftracker.coppersurfer.tk%3A6969&amp;tr=udp%3A%2F%2Fexodus.desync.com%3A6969","seeders":3,"leechers":1,"uploader":"BurtonW","files":1,"time":1388229766,"description":" &lt;a href=&quot;http://www.imdb.com/title/tt0049279/?ref_=fn_al_tt_1&quot; rel=&quot;nofollow&quot; target=&quot;_NEW&quot;&gt;http://www.imdb.com/title/tt0049279/?ref_=fn_al_tt_1&lt;/a&gt;\n\n\nA very good quality film.\n\n\nEnglish subtitles!\n\n\nStoryline:\n\nThis is based on a true story. During the Civil War, a Union spy, Andrews, is asked to lead a band of Union soldiers into the South so that they could destroy the railway system. However, things don't go as planned when the conductor of the train that they stole is on to them and is doing everything he can to stop them.\n\n\nTechnical info:\n\n\nGeneral:\n\nComplete name:                  : The Great Locomotive Chase  (Western 1956)  Fess Parker, Jeffrey Hunter &amp; Jeff York.mp4\n\nFormat                         : MPEG-4\nFormat profile                 : Base Media / Version 2\nCodec ID                       : mp42\nFile size                      : 467 MiB\nDuration                       : 1h 27mn\nOverall bit rate mode          : Variable\nOverall bit rate               : 745 Kbps\nEncoded date                   : UTC 2013-12-16 00:01:18\nTagged date                    : UTC 2013-12-16 02:40:14\n\n\nVideo:\n\nID                             : 1\nFormat                         : AVC\nFormat/Info                    : Advanced Video Codec\nFormat profile                 : &lt;a class=&quot;__cf_email__&quot; href=&quot;/cdn-cgi/l/email-protection&quot; data-cfemail=&quot;b9f4d8d0d7f9f58d9789&quot;&gt;[email&amp;#160;protected]&lt;/a&gt;&lt;script cf-hash='f9e31' type=&quot;text/javascript&quot;&gt;\n/* &lt;![CDATA[ */!function(){try{var t=&quot;currentScript&quot;in document?document.currentScript:function(){for(var t=document.getElementsByTagName(&quot;script&quot;),e=t.length;e--;)if(t[e].getAttribute(&quot;cf-hash&quot;))return t[e]}();if(t&amp;&amp;t.previousSibling){var e,r,n,i,c=t.previousSibling,a=c.getAttribute(&quot;data-cfemail&quot;);if(a){for(e=&quot;&quot;,r=parseInt(a.substr(0,2),16),n=2;a.length-n;n+=2)i=parseInt(a.substr(n,2),16)^r,e+=String.fromCharCode(i);e=document.createTextNode(e),c.parentNode.replaceChild(e,c)}}}catch(u){}}();/* ]]&gt; */&lt;/script&gt;\nFormat settings, CABAC         : Yes\nFormat settings, ReFrames      : 8 frames\nCodec ID                       : avc1\nCodec ID/Info                  : Advanced Video Coding\nDuration                       : 1h 27mn\nBit rate mode                  : Variable\nBit rate                       : 576 Kbps\nWidth                          : 640 pixels\nHeight                         : 480 pixels\nDisplay aspect ratio           : 4:3\nFrame rate mode                : Variable\nFrame rate                     : 23.976 fps\nMinimum frame rate             : 23.974 fps\nMaximum frame rate             : 23.981 fps\nColor space                    : YUV\nChroma subsampling             : 4:2:0\nBit depth                      : 8 bits\nScan type                      : Progressive\nBits/(Pixel*Frame)             : 0.078\nStream size                    : 361 MiB (77%)\nWriting library                : x264 core 130 r2273 b3065e6\nEncoding settings              : Deleted\nEncoded date                   : UTC 2013-12-16 00:01:18\nTagged date                    : UTC 2013-12-16 02:40:14\nColor primaries                : BT.601 NTSC\nTransfer characteristics       : BT.709\nMatrix coefficients            : BT.601\n\nAudio:\n\nID                             : 2\nFormat                         : AAC\nFormat/Info                    : Advanced Audio Codec\nFormat profile                 : LC\nCodec ID                       : 40\nDuration                       : 1h 27mn\nBit rate mode                  : Variable\nBit rate                       : 160 Kbps\nMaximum bit rate               : 211 Kbps\nChannel(s)                     : 2 channels\nChannel positions              : Front: L R\nSampling rate                  : 48.0 KHz\nCompression mode               : Lossy\nDelay relative to video        : 83ms\nStream size                    : 100 MiB (21%)\nLanguage                       : English\nEncoded date                   : UTC 2013-12-16 00:01:18\nTagged date                    : UTC 2013-12-16 02:40:13\n\nText:\n\nID                             : 3\nFormat                         : mp4s\nCodec ID                       : E0\nDuration                       : 1h 27mn\nBit rate mode                  : Variable\nBit rate                       : 4 759 bps\nMaximum bit rate               : 4 274 Mbps\nDelay relative to video        : 83ms\nStream size                    : 2.97 MiB (1%)\nLanguage                       : English\nEncoded date                   : UTC 2013-12-16 00:01:18\nTagged date                    : UTC 2013-12-16 02:40:13\n\n","torrent":{"xt":"urn:btih:97bd26930b587d846d311e61791710a2fc202b85","amp;dn":"The+Great+Locomotive+Chase++%28Western+1956%29++Fess+Parker%2C+Jeffrey","amp;tr":["udp%3A%2F%2Ftracker.openbittorrent.com%3A80","udp%3A%2F%2Fopen.demonii.com%3A1337","udp%3A%2F%2Ftracker.coppersurfer.tk%3A6969","udp%3A%2F%2Fexodus.desync.com%3A6969"],"infoHash":"97bd26930b587d846d311e61791710a2fc202b85","infoHashBuffer":{"type":"Buffer","data":[151,189,38,147,11,88,125,132,109,49,30,97,121,23,16,162,252,32,43,133]},"announce":[],"urlList":[]}}